<?xml version="1.0" encoding="utf-8"?>
<!-- Generator: Adobe Illustrator 24.0.1, SVG Export Plug-In . SVG Version: 6.00 Build 0)  -->
<!DOCTYPE svg PUBLIC "-//W3C//DTD SVG 1.1//EN" "http://www.w3.org/Graphics/SVG/1.1/DTD/svg11.dtd" [
	<!ENTITY ns_extend "http://ns.adobe.com/Extensibility/1.0/">
	<!ENTITY ns_ai "http://ns.adobe.com/AdobeIllustrator/10.0/">
	<!ENTITY ns_graphs "http://ns.adobe.com/Graphs/1.0/">
	<!ENTITY ns_vars "http://ns.adobe.com/Variables/1.0/">
	<!ENTITY ns_imrep "http://ns.adobe.com/ImageReplacement/1.0/">
	<!ENTITY ns_sfw "http://ns.adobe.com/SaveForWeb/1.0/">
	<!ENTITY ns_custom "http://ns.adobe.com/GenericCustomNamespace/1.0/">
	<!ENTITY ns_adobe_xpath "http://ns.adobe.com/XPath/1.0/">
]>
<svg version="1.1" id="Слой_1" xmlns:x="&ns_extend;" xmlns:i="&ns_ai;" xmlns:graph="&ns_graphs;"
	 xmlns="http://www.w3.org/2000/svg" xmlns:xlink="http://www.w3.org/1999/xlink" x="0px" y="0px" viewBox="0 0 159.4 131.5"
	 style="enable-background:new 0 0 159.4 131.5;" xml:space="preserve">
<style type="text/css">
	.st0{fill:#207CBA;}
</style>
<metadata>
	<sfw  xmlns="&ns_sfw;">
		<slices></slices>
		<sliceSourceBounds  bottomLeftOrigin="true" height="108.6" width="159.4" x="0" y="17.9"></sliceSourceBounds>
	</sfw>
</metadata>
<path class="st0" d="M96.9,8c-3.8,0-5.8,0.6-9.4,2.1c-24.5,10-48.8,20.3-73.2,30.6c-0.9,0.4-0.7-0.7,0.5-1.2
	C38.6,29,70.2,15.6,93.9,5C100.2,6.8,96.9,8,96.9,8z M10.3,56.1c10.5-3.3,20.9-6.8,31.4-9.9c16.4-4.9,32.9-9.7,49.4-14.4
	c1-0.3,1.9,2.3,1,2.5C65.3,41.9,37.5,49.5,10.6,57C10.4,57,10.5,56.3,10.3,56.1z M89.7,25.5c1.8-0.6,3.4-1.3,3.2,2
	C66.3,35.8,37,45,10.4,53.2c-0.1-0.3-0.3-0.6-0.4-0.9c9.1-3.2,20.9-7.3,30.1-10.4 M12,48.3c8.9-3.4,17.7-7,26.6-10.3
	c16.3-6.1,32.6-12.2,48.9-18.3c1.6-0.6,3.6-2,3.8,1.8L12.3,49L12,48.3L12,48.3z M88.6,12.7c2.2,3.4-0.3,3.5-1.9,4.1
	C65.6,25,44.4,33.1,23.3,41.2c-2.1,0.8-8.5,3.4-10.6,4.2c-0.1-0.3,0.1-0.8,0-1C36.6,34.3,64.5,22.8,88.6,12.7L88.6,12.7z M16.6,66.5
	c21.7-4.3,43.3-8.5,65-12.7c0.8-0.2,1.8,0.5,2.8,0.8c-0.9,0.5-1.7,1.4-2.6,1.5C62,59.6,42.3,62.9,22.6,66.2
	c-1.9,0.3-3.8,0.6-5.8,0.9L16.6,66.5L16.6,66.5z M117.3,69.6c-3.4-1.3-7.7-0.9-6.2,0.3c-9-1.3-8-0.9-8-9.9l14.8,8.6
	C118,68.6,117.3,69.6,117.3,69.6z M21.1,79.1l38.2-2.9l0.1,1.3l-38.2,2.4L21.1,79.1z M98.8,74.9L81.2,76l-0.1-1.5l17.5-1.3
	L98.8,74.9L98.8,74.9z M87.3,37.9l6.9-0.9l0.8,7.8C95.1,44.8,87.3,37.9,87.3,37.9z M133.9,68.4c3.1-1.2,7.1-0.9,5.7,0.3
	c8.2-1.2,7.3-0.9,7.3-9.4l-13.6,8.2L133.9,68.4z M103.1,54.5c0.2,0,6.8,1.4,9.8,1.6c2.6,0.2,4.9,0.5,4.9,3.9l18.1-0.7
	c0.2-0.7,0.3-1.2,0.5-1.7c0.3-0.6,0.6-1.4,1.1-1.6c2.1-0.7,6.8-2,7-2"/>
<path class="st0" d="M80.4,8.8c-6,0.2-12.8-0.2-19.4,0.7c-25.4,3.5-45.8,23.1-50.1,47.6c-2.3,13.4,0.8,25.6,9.1,36.3
	c7.5,9.7,17.6,15.6,29.5,18.3c1,0.2,7,1.3,8,1.9c-2.2-0.2-9.3-1-11.5-1.3c-19.6-2.9-34.5-12.3-42.3-31.1c-6-14.3-4.4-28.6,2.8-42.1
	C20.5,12.4,51.4-0.2,80.1,8.7C80.5,8.8,80.8,9,80.4,8.8z M69.3,83.8l0.3,0.8c0.9-0.3,2.2-0.2,2.8-0.8c2.1-2.2,2-9.3,0-11.4
	c-0.5-0.5-1.6-0.6-2.4-0.9C72.4,76.1,72.4,80,69.3,83.8L69.3,83.8z M96.8,14.7c0,2.8,0.3,5.6,0.7,8.4c0.1,0.8,1,2,1.7,2.1
	c1.4,0.2,2-1,2.1-2.3c0.1-2.6,0.3-5.2,0.4-7.8c0.2-4.4-1.7-6.6-6.1-7C95.1,8,93.3,5.4,93.9,5c0.4-0.3,23.3,1.7,34.1,2.4
	c3.3,0.2,5.3,1.9,6.7,4.7c4.8,10,7.7,20.6,8.6,31.6c0.3,3.7-0.3,4.7-3.8,6.1c-12.3,4.9-24.6,3.7-36.8-0.1c-2.9-0.9-4.3-3.2-4.5-6.3
	c-0.2-3.1-0.3-6.2-0.8-9.3c-1.1-7.9-2.3-15.7-3.4-23.7c1.6-0.2,3.5-0.3,4.7,0.9C97.9,12.7,96.8,13.7,96.8,14.7z M112.8,49.9
	c2.9,0.3,5.5,0.5,8,0.6c0.5,0,1.2-0.7,1.5-1.2c4.5-8.6,8.9-17.2,13.3-25.9c0.2-0.5,0.4-1.1,0.3-1.6c-1.1-2.9-2.3-5.8-3.5-8.8l-0.7,0
	 M125,50c2.4,0.9,3.3,0.6,4.3-1.4c2.7-5.3,5.4-10.7,8.3-15.9c1.2-2.2,0.6-3.9-0.3-6.5L125,50z M145.3,14.2c-2.9,0.6-2.6,2.2-2.1,4.1
	c0.6,2.2,0.8,4.4,1.2,6.6c0.2,1.2,0.6,2.5,2,2c0.7-0.2,1.5-1.6,1.6-2.5c0.1-2.8-0.1-5.6-0.3-8.4c-0.2-3.1-1.4-4.5-4.4-4.9
	c-1.9-0.2-3.7,0-5.7,0c0.2,1.8,1,1.8,2.2,1.7C141.5,12.6,143.4,12.2,145.3,14.2z"/>
<path class="st0" d="M127.9,7.4l6.8,0.8c1.3,0.2,2.3,1,2.8,2.1l4.9,11.8l0,0.1l4.5,32.1c0,0-5.6-32-5.8-32.2l-3.5-7l-3.7-5.3"/>
<path class="st0" d="M159,89.9c-10-1.7-20.2,0-30.4-0.8c0.1-3.4,1.8-4.5,5-4.7c3.5-0.2,7.2-0.5,10.4-1.7c1.9-0.7,4.3-3.3,4.4-5.2
	c0.3-6-0.3-12.1-0.6-18.2c-0.7,4.1-0.6,10.8-0.6,11.8c0.5,7.4-1.4,9.5-8.8,9.5c-5.5,0.1-11,0.1-16.5,0.2c-5.3,0-10.7,0-16.2,0
	l-1.9-8.6l-0.4,0.1l-1,8.8h-25c-0.6-2.7-0.9-5.5-1.8-8c-1.1-3.4-2-7.9-6.7-7.4c-4.5,0.4-5,4.9-5.7,8.4c-0.5,2.6-0.6,5.4-1,8.3
	l-45,1.3c-5.6,0-6.4,5.4-6,7c-2.3,0.1,96.2,0.8,147.4,0.8C159.5,91.2,159.5,90.5,159,89.9L159,89.9z M21.6,90.4
	c-0.2-3.6,1.5-5,5-4.6c2,0.2,3.9,0.2,5.9,0c3.1-0.3,5,0.8,5.4,4.6H21.6z M48.1,89.8c0.2-2.7,1.2-4.2,4.3-4c2.8,0.2,5.7,0.2,8.6,0
	c2.8-0.2,4.4,0.8,4.9,4C65.8,89.8,48.1,89.8,48.1,89.8z M73,85.3c-1.7,2.5-4.2,2.4-5.5-0.4c-0.7-1.5-1.1-3.1-1.5-4.8
	c-0.3-1.2-0.3-2.5,0-3.8c0.4-1.8,0.8-3.6,1.6-5.2c1.3-2.8,3.7-2.7,5.4-0.2C75.3,74.4,75.3,81.8,73,85.3z M81.7,89.5
	c0.1-2.6,1.2-3.8,4-3.8c7,0,14.1-0.2,21.1-0.6c2.9-0.2,4.4,0.9,4.9,4.3C111.8,89.5,81.7,89.5,81.7,89.5z"/>
</svg>
