<svg version="1.1" id="Слой_1" xmlns="http://www.w3.org/2000/svg" x="0" y="0" viewBox="0 0 159.377 131.49" style="enable-background:new 0 0 159.3765259 131.4900055" xml:space="preserve"><style>.st0{fill:#f4f4f4}.st3{fill:#fff}</style><path class="st0" d="M96.943 8.044c-3.818.015-5.816.613-9.358 2.067-24.468 10.04-48.829 20.344-73.223 30.564-.95.398-.727-.69.534-1.246C38.622 28.99 70.23 15.632 93.882 5.025c6.27 1.814 3.061 3.019 3.061 3.019zM10.349 56.074c10.457-3.315 20.874-6.766 31.381-9.914 16.43-4.921 32.917-9.658 49.403-14.388 1-.287 1.903 2.273.984 2.532-26.847 7.55-54.641 15.2-81.513 22.66-.237.067-.118-.656-.255-.89zM89.655 25.513c1.752-.58 3.437-1.305 3.216 2.04C66.3 35.787 37.021 44.955 10.35 53.22c-.1-.301-.253-.602-.353-.903 9.13-3.172 20.891-7.333 30.057-10.4M11.977 48.295c8.868-3.448 17.708-6.971 26.61-10.329C54.876 31.823 71.2 25.771 87.516 19.701c1.59-.591 3.613-2.05 3.778 1.764L12.257 49.05l-.28-.754zM88.583 12.732c2.24 3.413-.325 3.49-1.862 4.08C65.585 24.952 44.44 33.066 23.295 41.18c-2.15.825-8.486 3.363-10.64 4.173-.114-.297.11-.752-.003-1.049 23.99-9.98 51.82-21.541 75.93-31.572zM16.56 66.524c21.654-4.261 43.305-8.538 64.973-12.726.841-.163 1.846.52 2.775.809-.862.526-1.67 1.372-2.595 1.533-19.704 3.412-39.42 6.749-59.135 10.092-1.917.326-3.843.596-5.764.892l-.253-.6zM117.348 69.565c-3.355-1.26-7.697-.906-6.215.323-8.953-1.273-7.96-.899-7.959-9.926l14.807 8.594-.633 1.009zM21.138 79.065l38.206-2.908.09 1.302-38.241 2.392-.055-.786zM98.768 74.905 81.23 76.037l-.125-1.454 17.55-1.306.112 1.628zM87.336 37.878l6.911-.915.815 7.795-7.726-6.88zM133.921 68.444c3.088-1.195 7.083-.86 5.72.306 8.238-1.208 7.325-.852 7.324-9.418l-13.626 8.155.582.957zM103.14 54.466c.188.013 6.837 1.351 9.812 1.624 2.61.24 4.937.512 4.881 3.872l18.082-.7c.188-.678.254-1.21.481-1.66.298-.59.61-1.442 1.112-1.615 2.107-.728 6.825-2.023 7.012-2.01"/><path class="st0" d="M80.387 8.802c-6.006.175-12.817-.232-19.448.676-25.365 3.47-45.846 23.056-50.1 47.624-2.313 13.365.758 25.584 9.08 36.298 7.543 9.711 17.602 15.572 29.536 18.3 1.039.238 6.99 1.27 8.002 1.888-2.2-.167-9.327-1.01-11.503-1.332C26.378 109.36 11.427 99.91 3.653 81.17-2.301 66.82-.7 52.552 6.443 39.038 20.52 12.405 51.365-.158 80.134 8.706c.332.102.65.252.253.096zM69.316 83.763l.314.805c.95-.256 2.215-.213 2.792-.822 2.074-2.193 2.023-9.31-.022-11.432-.523-.543-1.555-.596-2.353-.874 2.389 4.659 2.381 8.545-.73 12.323zM96.841 14.712c-.016 2.805.296 5.63.736 8.406.13.822 1.046 2.046 1.732 2.141 1.376.191 2.028-.97 2.104-2.337.144-2.603.332-5.205.435-7.81.173-4.371-1.72-6.573-6.097-7.007-.7-.07-2.445-2.685-1.869-3.08.389-.266 23.285 1.663 34.109 2.397 3.313.225 5.331 1.887 6.68 4.695 4.807 10.014 7.7 20.555 8.624 31.624.306 3.665-.336 4.692-3.825 6.089-12.281 4.917-24.582 3.746-36.839-.081-2.95-.921-4.289-3.21-4.46-6.28-.173-3.095-.339-6.2-.753-9.268-1.065-7.874-2.267-15.729-3.43-23.698 1.594-.175 3.496-.346 4.667.893-.741 1.29-1.808 2.3-1.814 3.316zm15.945 35.15c2.949.253 5.49.543 8.036.627.49.016 1.203-.67 1.482-1.206 4.48-8.61 8.911-17.245 13.325-25.89.235-.46.437-1.137.274-1.57-1.104-2.94-2.31-5.843-3.484-8.757l-.734.006M125 49.957c2.372.88 3.304.566 4.313-1.39 2.738-5.312 5.352-10.692 8.258-15.909 1.216-2.18.624-3.93-.326-6.513L125 49.957zM145.288 14.18c-2.861.643-2.611 2.22-2.117 4.126.562 2.168.812 4.42 1.158 6.64.19 1.218.646 2.484 2.013 2.042.74-.239 1.538-1.603 1.57-2.487.106-2.8-.096-5.617-.254-8.422-.175-3.09-1.398-4.522-4.446-4.883-1.85-.22-3.748-.041-5.742-.041.155 1.772 1.041 1.805 2.198 1.653 1.837-.24 3.75-.611 5.62 1.372z"/><path class="st0" d="m127.944 7.445 6.804.83a3.516 3.516 0 0 1 2.82 2.139l4.918 11.802.038.138 4.471 32.092s-5.643-31.98-5.802-32.211l-3.502-7.013-3.742-5.29"/><path style="fill:none" d="M35.584 94.129h118.623v33.667H35.584z"/><g style="enable-background:new"><path class="st3" d="m63.863 94.129-1.4 6.12h-8.44l-5.52 25.08-6.4-.08 5.52-25h-8.44l1.4-6.12h23.28zM70.184 105.889h8.32l.64-2.88c.132-.613.22-1.113.26-1.5.04-.386-.028-.686-.2-.9-.174-.213-.488-.36-.94-.44-.454-.08-1.107-.12-1.96-.12h-9.44l1.36-5.92h12.92c1.333 0 2.38.154 3.14.46.76.307 1.313.72 1.66 1.24.346.52.526 1.127.54 1.82s-.06 1.413-.22 2.16l-4 18.04c-.32 1.52-.62 2.76-.9 3.72-.28.96-.68 1.714-1.2 2.26-.52.547-1.24.92-2.16 1.12s-2.18.3-3.78.3h-11.88l1.24-6.12h9.4c.64 0 1.14-.033 1.5-.1.36-.067.653-.188.88-.362s.392-.43.5-.765c.106-.335.213-.77.32-1.306l1.08-5.067h-7.08v-5.64zM86.023 125.249l6.92-31.12h6.4l-2.92 13 11.52-13h8.4l-14.32 16.2 10.12 14.96h-7.48l-9.2-13.64-3.04 13.6h-6.4zM143.263 94.129h5.64l-7.16 31.12h-6.4l4.72-20.64-18.72 20.64h-5.72l7.12-31.12h6.28l-4.84 21.32 19.08-21.32z"/></g><path class="st0" d="M158.987 89.9c-9.994-1.68-20.233.042-30.351-.83.144-3.432 1.845-4.53 5.019-4.675 3.497-.16 7.16-.49 10.37-1.732 1.926-.745 4.331-3.31 4.43-5.167.316-6.028-.332-12.106-.608-18.164-.708 4.114-.627 10.826-.56 11.842.496 7.426-1.387 9.462-8.772 9.544-5.502.06-11.004.142-16.506.172-5.343.03-10.686.007-16.153.007l-1.919-8.561-.45.105-.959 8.805H77.576c-.583-2.706-.946-5.453-1.79-8.043-1.114-3.412-1.954-7.892-6.677-7.425-4.476.442-4.961 4.861-5.682 8.422-.534 2.64-.648 5.365-.975 8.279l-44.984 1.27c-5.636-.046-6.401 5.379-5.97 7.036-2.334.105 96.175.772 147.408.772.613-.407.613-1.094.081-1.656zm-137.377.517c-.156-3.62 1.492-4.994 4.985-4.596a26.54 26.54 0 0 0 5.882 0c3.132-.346 4.97.753 5.374 4.596H21.61zm26.446-.632c.172-2.707 1.224-4.213 4.297-3.97 2.842.223 5.73.228 8.57-.007 2.843-.234 4.436.753 4.888 3.977H48.056zm24.896-4.519c-1.701 2.534-4.202 2.354-5.456-.429-.672-1.491-1.052-3.129-1.464-4.793a8.05 8.05 0 0 1-.029-3.775c.428-1.824.812-3.607 1.575-5.209 1.338-2.81 3.738-2.748 5.416-.16 2.302 3.549 2.276 10.911-.042 14.366zm8.754 4.222c.061-2.602 1.188-3.771 4.048-3.776 7.043-.01 14.093-.175 21.125-.564 2.937-.162 4.366.885 4.903 4.34H81.706z"/></svg>