<?xml version="1.0" encoding="utf-8"?>
<!-- Generator: Adobe Illustrator 24.0.1, SVG Export Plug-In . SVG Version: 6.00 Build 0)  -->
<!DOCTYPE svg PUBLIC "-//W3C//DTD SVG 1.1//EN" "http://www.w3.org/Graphics/SVG/1.1/DTD/svg11.dtd" [
	<!ENTITY ns_extend "http://ns.adobe.com/Extensibility/1.0/">
	<!ENTITY ns_ai "http://ns.adobe.com/AdobeIllustrator/10.0/">
	<!ENTITY ns_graphs "http://ns.adobe.com/Graphs/1.0/">
	<!ENTITY ns_vars "http://ns.adobe.com/Variables/1.0/">
	<!ENTITY ns_imrep "http://ns.adobe.com/ImageReplacement/1.0/">
	<!ENTITY ns_sfw "http://ns.adobe.com/SaveForWeb/1.0/">
	<!ENTITY ns_custom "http://ns.adobe.com/GenericCustomNamespace/1.0/">
	<!ENTITY ns_adobe_xpath "http://ns.adobe.com/XPath/1.0/">
]>
<svg version="1.1" id="Слой_1" xmlns:x="&ns_extend;" xmlns:i="&ns_ai;" xmlns:graph="&ns_graphs;"
	 xmlns="http://www.w3.org/2000/svg" xmlns:xlink="http://www.w3.org/1999/xlink" x="0px" y="0px"
	 viewBox="0 0 159.3765259 131.4900055" style="enable-background:new 0 0 159.3765259 131.4900055;" xml:space="preserve">
<style type="text/css">
	.st0{fill:#F4F4F4;}
	.st1{fill:none;}
	.st2{enable-background:new    ;}
	.st3{fill:#FFFFFF;}
</style>
<metadata>
	<x:xmpmeta  x:xmptk="Adobe XMP Core 5.6-c148 79.164050, 2019/10/01-18:03:16        " xmlns:x="adobe:ns:meta/">
		<rdf:RDF  xmlns:rdf="http://www.w3.org/1999/02/22-rdf-syntax-ns#">
			
				<rdf:Description  rdf:about="" xmlns:dc="http://purl.org/dc/elements/1.1/" xmlns:illustrator="http://ns.adobe.com/illustrator/1.0/" xmlns:stDim="http://ns.adobe.com/xap/1.0/sType/Dimensions#" xmlns:stEvt="http://ns.adobe.com/xap/1.0/sType/ResourceEvent#" xmlns:stFnt="http://ns.adobe.com/xap/1.0/sType/Font#" xmlns:stRef="http://ns.adobe.com/xap/1.0/sType/ResourceRef#" xmlns:xmp="http://ns.adobe.com/xap/1.0/" xmlns:xmpG="http://ns.adobe.com/xap/1.0/g/" xmlns:xmpGImg="http://ns.adobe.com/xap/1.0/g/img/" xmlns:xmpMM="http://ns.adobe.com/xap/1.0/mm/" xmlns:xmpTPg="http://ns.adobe.com/xap/1.0/t/pg/">
				<xmp:CreatorTool>Adobe Illustrator 24.0 (Windows)</xmp:CreatorTool>
				<xmp:CreateDate>2022-07-12T19:49:58+03:00</xmp:CreateDate>
				<xmp:MetadataDate>2022-07-12T19:49:59+03:00</xmp:MetadataDate>
				<xmp:ModifyDate>2022-07-12T19:49:59+03:00</xmp:ModifyDate>
				<xmp:Thumbnails>
					<rdf:Alt>
						<rdf:li  rdf:parseType="Resource">
							<xmpGImg:width>256</xmpGImg:width>
							<xmpGImg:height>212</xmpGImg:height>
							<xmpGImg:format>JPEG</xmpGImg:format>
							<xmpGImg:image>/9j/4AAQSkZJRgABAgEASABIAAD/7QAsUGhvdG9zaG9wIDMuMAA4QklNA+0AAAAAABAASAAAAAEA
AQBIAAAAAQAB/+4ADkFkb2JlAGTAAAAAAf/bAIQABgQEBAUEBgUFBgkGBQYJCwgGBggLDAoKCwoK
DBAMDAwMDAwQDA4PEA8ODBMTFBQTExwbGxscHx8fHx8fHx8fHwEHBwcNDA0YEBAYGhURFRofHx8f
Hx8fHx8fHx8fHx8fHx8fHx8fHx8fHx8fHx8fHx8fHx8fHx8fHx8fHx8fHx8f/8AAEQgA1AEAAwER
AAIRAQMRAf/EAaIAAAAHAQEBAQEAAAAAAAAAAAQFAwIGAQAHCAkKCwEAAgIDAQEBAQEAAAAAAAAA
AQACAwQFBgcICQoLEAACAQMDAgQCBgcDBAIGAnMBAgMRBAAFIRIxQVEGE2EicYEUMpGhBxWxQiPB
UtHhMxZi8CRygvElQzRTkqKyY3PCNUQnk6OzNhdUZHTD0uIIJoMJChgZhJRFRqS0VtNVKBry4/PE
1OT0ZXWFlaW1xdXl9WZ2hpamtsbW5vY3R1dnd4eXp7fH1+f3OEhYaHiImKi4yNjo+Ck5SVlpeYmZ
qbnJ2en5KjpKWmp6ipqqusra6voRAAICAQIDBQUEBQYECAMDbQEAAhEDBCESMUEFURNhIgZxgZEy
obHwFMHR4SNCFVJicvEzJDRDghaSUyWiY7LCB3PSNeJEgxdUkwgJChgZJjZFGidkdFU38qOzwygp
0+PzhJSktMTU5PRldYWVpbXF1eX1RlZmdoaWprbG1ub2R1dnd4eXp7fH1+f3OEhYaHiImKi4yNjo
+DlJWWl5iZmpucnZ6fkqOkpaanqKmqq6ytrq+v/aAAwDAQACEQMRAD8A9U4q7FXYq7FXYq7FXYq7
FVjTRr3r8sVUzdfyr9+KrDcSHvTFWvVlP7RxVsGc9OWKtg3Pviq8NcDqtcVXq7/tIR8qYqvLACpN
B74qotcDogqcVWlJ5Ouw8OmKrTBKNxv8sVWcmHc4q36sn8xxVsTS/wA2Kt/WJPbFW/rL+AxVv60f
5cVXC5XupxVUSRX6fdiq7FXYq7FXYq7FXYq7FXYq7FXYqovcKNl3Pj2xVRaR26n6MVWgEmg64qqr
buevwjFVVbeMdRX54qqBVHQAfLFXYq7FWmdV+0aYqpGZ32jX6TirvRJ+KVsVcJYUICj5nFVVhVT8
sVULcOWrU0HXFWrhQHqO4xVSxV2KuxV2KuxVsKwXn2rTFV26kMpoG74qrFZwK8xircMpeqt1GKqm
KuxV2KuxV2KuxVa8ioKn6BiqGklZ+uw8MVWYqqxwM27bD8cVRCoqiijFW8VdirsVWPMi96nwGKrK
zv0HBfHvirvTiTdzU+/9MVaa57IKYqt9OaTdvxxVeIY03c1xVWDBhUGoxVRtxQuPA4qtuftj5Yqo
4q7FXYq7FW1BYgDqcVRZjHp8O1MVQ8Y5K0Z69R8xiq9mLW/uuxxVZb/3n0YqisVdirsVdirsVWSy
hB4t2GKoVmLGpNTirQBJoOuKomKALu27fqxVVxV2KuJAFTsMVUzOK0QFjirXCV/ttxH8oxVrlBH9
nc/fiq31JpNlFB7f1xVtbfu7fPFW/Ugj+yKn2/riqwzSvsop8sVbFu7GrGn4nFVZECLQYqpoQs7j
x6YqsuDWT5DFVLFXYq7FXYqr2ydXPyGKq+KoVmAnLDoD/t4qqMKO6jo61+nFVO3/AL0fTiqKxV2K
uxV2KrZZAi179hiqDJJNTuTirgCTQdcVRUUQQVP2j1xVUxVpnVftGmKrPUdv7tdv5jirRjH2pWr7
dBirRnUfDGtcVa9OaT7ZoPDFXcYI+p5H78Vcbhjsi4q16Mz7uafPFV3pQpuxr88VcbhF2UV/AYqs
9SZ/s9Pb+uKqkMTq3Jj17Yqp3IpJXxGKqWKuxV2KuxVtVLMAOpxVGqAAAOgxVZK/BCe52GKof0z6
XP3/AAxVUU19JvmpxVUSFUYkb4qvxV2KuxVxIAJPQYqg5HLtU/QMVW4qiYIuI5HqemKr2lRdq1Pg
MVW/vn/yB+OKrT6Me5PJvfc4q71Jn+wvEeJxVr0lG8r1OKu9ZF2jXFXcZ5Op4j7sVb9GJN3NcVcb
hF2Rf4Yqt5XD9BQe22KtrbE7s33Yqu4wR9aV99zirTXKj7Ir+GKroZWcmooOxxVZdD7J+eKqGKux
V2KuxVXtk2Ln5DFVfFUNITJKFHQbYqvuGCoEHf8AUMVWRn4D/ksDiqJxV2KuxV2Koe5k34Dt1xVR
xVdGpLfZ5U7YqiCrkVkbivgP64qtDou0a8j7f1xVsrK27txXwGKreUCfZHJsVbrO/QcBirXpRrvI
1TirvXjXaNcVd/pD/wCSPuxVwtwN3bFW+cCdNz7b4q0bljsq/wAcVa43D9dh77YquW2H7R+7FVxR
I1qE5eOKrPrJ7LTFV1yPgB98VQ2KuxV2KtqpZgo74qjQAAAOgxVZM/BPc7DFVluoVS57/qxVQdiz
FvHFV0W/JfFTiqKU1UHxGKt4q7FWnbipbwxVBEkkk9TirsVREfqBAqrTxY4q5ljG8jcj4f2Yq2Hk
O0acR4nFWmjHWV6+2KtCWNdo0qfHFW6XD9TxGKtejEu7tU4q71ol+wv8MVa9Sd/sig/z8cVbFu7b
u38cVXrbxjrv88VVAAOgpirsVdirsVUJoP2k+kYqun3hB+WKobFXYq7FURbJQcz36YqrYqhnJll4
joNsVX3DBVCDv+rFUPiq+A/vVxVEx/YA8Nvu2xVdirsVUbltgvjucVQ+Kr4gS4IFab0xVXYN1kfi
PAbYqsDRj+7TkfHFV3GdupCD2xVbwgT7R5H/AD8MVd63aNP8/oxV3G4fqeI/z8MVbW2X9ok4qqLG
i9AMVXYq7FXYq7FXYq7FXYq7FWnXkpXxxVBsrKaEUxVrFW0UswUd8VRoAAAHQYqpzPxTbqdhiq2B
QqFz3/Viqg7FmLHvirWKqsEbFwxFAMVRC9SPfFW8VdiqEnNZD7bYqsxVWhRypIbiD9+Krj6Cnc82
+/FW+cp2RKDxOKu9GRvtv9AxVcsEY7V+eKrwAOmKuxV2KuxV2KuxV2KuxVoso6kDFWhLGTQMK4qu
xV2KuxVxpTfp74qpNHAe4HyOKrDAnZx9OKreBHSRfvxVoxk7l1P04q36ZpQyLTwrirYii7yD6MVV
FFuvQivicVXiRCaA1+WKru5xV2KuxVBMasT4nFWsVRMcKlF5EnvTtiqoFVegAxVvFXYq7FXYq7FX
Yq0WUdSBiqwzxjvX5Yqt+sE/ZQnFXcrhui0/z98Va9KdvtPTFWxbDuxOKr1hjU1A38Tiq/FXYq7F
XYq0UQ9QDiq0wRHtiqjNCEAI6HbFVLFXUOKu4t4HFVeCEEcnHyBxVXAA6CmKurirsVdiqBxV2Ko1
fsj5Yq3irsVaLoOpAxVaZ07Vb5DFWvUkP2Yz9O2KupcHuFxVr0WP2nJ9sVbFvGOxPzxVcI0HRRiq
7FXYq7FXYq7FXYq7FXYqpzkiOo2NcVWR3J6P9+Kq4YEVBqMVdirqDFXYq7FXEgCpNBiqhJcdk+/F
VsDEvvuSf4HFUTirsVQJ2NMVdiqOX7I+WKtMrE7NQfLFVvpKftEt8zirYjjHRRiq7FXYq7FXYq7F
XYq7FUM87s1F2HanXFW0mdWAfofHFURirsVdirsVdiq2VCyEDr2xVCFGHUEYqujEo+JAcVREchY8
WUhsVX4q7FWmrQ0FT2GKqLQzPuxHyxVTEEp7YqqLH6bJU1JP8MVV8VdiqDlFJGHviq3FUZGaxqfb
FV2KuxV2KuxV2KuxV2KuxV2KrJjSNvu+/FVO2Xq30DFWpWLFkYbjdTiqtE3KMH78VXFlHUgYqt9S
P+YffirXrRfzYq4TRkgA7nFVzsFWpxVvFXYq7FXYq7FXYq7FXYqpy/aj+eKqmKuxVD3K/EG8dsVU
cVRNs1Up4HFVXFVpkQGhYA4q160fj+BxV3qr2DH6MVd6p7I33Yq71JO0Z+8Yq1ym/kA+nFXfvz2U
ffirqT13YYq1cn4B7nFV0A/dDFVOb++X6K4q3bH4SPA4qqNFGxqRU4q16MX8uKt+nH/KPuxVsKo6
AYqp3J/d/M4qqIaoD4jFW8VdirsVdirsVdirsVUXYNMijfianFVbFXYqslTkhHfqMVQmKqkD8X36
HY4qr+tH/NirvWi8cVd68Xj+BxVr6xF4/hirvrEfvirX1mP3xV31mPwOKtfWU8DirvrS/wApxVTl
lDgAClMVVLdvgIP7O+KqZJZ2kIoB0/hiqxHZPs98VX/WJfH8MVd9Yl8fwxV31iXx/DFXfWJfH8MV
WvI7ijHFXCWRRQGgxVv1pf5sVd60v82Ku9aX+bFXetL/ADYq71ZT+0cVbDznpyxVv0526kge5xVW
iiCDxJ6nFV+KuxV2KoWePi1R0OKqeKuxVVgiVgWbp0piqt6EXh+JxV3oReH4nFVCaIIRTocVU8VX
RpzcDt3xVE+hF4ficVa+rxeH44q428RGwp74qhwzRuadRscVbklZ9ug8MVWYqqQojVLHYdsVVvTg
8B9+Ku9ODwH34q3wh8BiruMPguKt8YvBfwxVDSqqv8PQ7jFVmKuxVtQCwB2B74qi1MYFAQB88Vb5
p/MPvxV3NP5h9+Ku9SP+YffiruafzD78VbBB6HFXYq06B1IP0Yqg2UqSD1GKuUqGHIVHcYqiljSn
w1APgTirfpjxb7zirvTHi33nFWjCh61PzJxVr6vF4Yq76vH74q76vH74q76vH74q76vH74q76vH7
4q19Wj98Vd9Wj98Vd9Wj98Vd9Wj98Vd9Wj98Vd9Wj98Vd9Wj8Tirvq0ficVd9Wj8Tirvq0ficVd9
Wj8Tirvq0ficVd9Wj8Tirvq0ficVd9WTxOKtfVk8TirvqyeJxVsWyg1qcVVcVdiqyWIONvtDocVQ
hBBodjiqrDNwND9n9WKonrirsVdirsVdirsVdirsVdirsVdirsVdirsVdirsVdirsVdirsVdirsV
dirsVdirsVdirsVdirsVWSRK48D2OKoZ42Q0I+nFV0UxTY7r4YqiVZWFQajFW8VdirsVdirsVdir
sVdirsVdirsVdirsVdirsVdirsVdirsVdirsVdirsVdirsVdirsVdirsVcQCKHcYqovbA7oaexxV
S4yxmu49+2KqqXIOzinuMVVQwYVBqMVbxV2KuxV2KuxV2KuxV2KuxV2KuxV2KuxV2KuxV2KuxV2K
uxV2KuxV2KuxV2KuxV2KuxV2KuxV2KrGijbqv3bYqt+rgGqsQcVVcVWlmB+zUeIOKtg17EfPFW8V
dirsVdirsVdirsVdirsVdirsVdirsVdirsVdirsVdirsVdirsVdirsVdirsVdirsVdirsVdirsVd
irsVdirsVdirsVdirsVdirsVdirsVdirsVdirsVdirsVdirsVdirsVdirsVdirsVdirsVdirsVdi
rsVdirsVdirsVdirsVdirsVdirsVdirsVdirsVdirsVdirsVdirsVdirsVdirsVdirsVdirsVdir
sVdirsVdirsVdirsVdirsVdirsVdirsVdirsVdirsVdirsVdirsVdirsVdirsVdirsVdirsVdirs
VdirsVdirsVdirsVdirsVdirsVdirsVdirsVdirsVdirsVdirsVdirsVdirsVdirsVdirsVdirsV
dirsVdirsVdirsVdirsVdirsVdirsVdirsVdirsVdirsVdirsVdirsVdirsVdirsVdir/9k=
								</xmpGImg:image>
						</rdf:li>
					</rdf:Alt>
				</xmp:Thumbnails>
				<xmpTPg:MaxPageSize  rdf:parseType="Resource">
					<stDim:w>159.376523</stDim:w>
					<stDim:h>131.490002</stDim:h>
					<stDim:unit>Pixels</stDim:unit>
				</xmpTPg:MaxPageSize>
				<xmpTPg:NPages>1</xmpTPg:NPages>
				<xmpTPg:HasVisibleTransparency>False</xmpTPg:HasVisibleTransparency>
				<xmpTPg:HasVisibleOverprint>False</xmpTPg:HasVisibleOverprint>
				<xmpTPg:Fonts>
					<rdf:Bag>
						<rdf:li  rdf:parseType="Resource">
							<stFnt:fontName>OPTIMirc-Bold</stFnt:fontName>
							<stFnt:fontFamily>OPTIMirc</stFnt:fontFamily>
							<stFnt:fontFace>Bold</stFnt:fontFace>
							<stFnt:fontType>TrueType</stFnt:fontType>
							<stFnt:versionString>001.000</stFnt:versionString>
							<stFnt:composite>False</stFnt:composite>
							<stFnt:fontFileName>18149.ttf</stFnt:fontFileName>
						</rdf:li>
					</rdf:Bag>
				</xmpTPg:Fonts>
				<xmpTPg:PlateNames>
					<rdf:Seq>
						<rdf:li>Cyan</rdf:li>
						<rdf:li>Magenta</rdf:li>
						<rdf:li>Yellow</rdf:li>
					</rdf:Seq>
				</xmpTPg:PlateNames>
				<xmpTPg:SwatchGroups>
					<rdf:Seq>
						<rdf:li  rdf:parseType="Resource">
							<xmpG:groupName>Группа образцов по умолчанию</xmpG:groupName>
							<xmpG:groupType>0</xmpG:groupType>
						</rdf:li>
					</rdf:Seq>
				</xmpTPg:SwatchGroups>
				<illustrator:CreatorSubTool>Adobe Illustrator</illustrator:CreatorSubTool>
				<dc:format>image/svg+xml</dc:format>
				<xmpMM:RenditionClass>default</xmpMM:RenditionClass>
				<xmpMM:DerivedFrom  rdf:parseType="Resource">
					<stRef:instanceID>xmp.iid:93a8ca8a-a3b7-7541-8fcd-e5520c39898b</stRef:instanceID>
					<stRef:documentID>xmp.did:93a8ca8a-a3b7-7541-8fcd-e5520c39898b</stRef:documentID>
					<stRef:originalDocumentID>xmp.did:18108e31-9a7c-7647-9895-75d2219d6aff</stRef:originalDocumentID>
					<stRef:renditionClass>default</stRef:renditionClass>
				</xmpMM:DerivedFrom>
				<xmpMM:DocumentID>xmp.did:5f8c10de-a7df-f647-8545-05c11fcc4954</xmpMM:DocumentID>
				<xmpMM:InstanceID>xmp.iid:5f8c10de-a7df-f647-8545-05c11fcc4954</xmpMM:InstanceID>
				<xmpMM:OriginalDocumentID>xmp.did:18108e31-9a7c-7647-9895-75d2219d6aff</xmpMM:OriginalDocumentID>
				<xmpMM:History>
					<rdf:Seq>
						<rdf:li  rdf:parseType="Resource">
							<stEvt:action>saved</stEvt:action>
							<stEvt:instanceID>xmp.iid:18108e31-9a7c-7647-9895-75d2219d6aff</stEvt:instanceID>
							<stEvt:when>2022-07-12T19:06:06+03:00</stEvt:when>
							<stEvt:softwareAgent>Adobe Illustrator 24.0 (Windows)</stEvt:softwareAgent>
							<stEvt:changed>/</stEvt:changed>
						</rdf:li>
						<rdf:li  rdf:parseType="Resource">
							<stEvt:action>saved</stEvt:action>
							<stEvt:instanceID>xmp.iid:5f8c10de-a7df-f647-8545-05c11fcc4954</stEvt:instanceID>
							<stEvt:when>2022-07-12T19:49:59+03:00</stEvt:when>
							<stEvt:softwareAgent>Adobe Illustrator 24.0 (Windows)</stEvt:softwareAgent>
							<stEvt:changed>/</stEvt:changed>
						</rdf:li>
					</rdf:Seq>
				</xmpMM:History>
			</rdf:Description>
		</rdf:RDF>
	</x:xmpmeta>
	<sfw  xmlns="&ns_sfw;">
		<slices></slices>
		<sliceSourceBounds  bottomLeftOrigin="true" height="122.79599" width="159.3765259" x="0" y="3.6940155"></sliceSourceBounds>
	</sfw>
</metadata>
<g>
	<path class="st0" d="M96.9434662,8.0435543c-3.8187714,0.0153599-5.8168716,0.6138668-9.3587494,2.0673199
		c-24.4680862,10.040781-48.82827,20.3444843-73.2230301,30.5639534c-0.9504147,0.3981438-0.7270575-0.690567,0.5338793-1.2453423
		C38.6224747,28.990366,70.2306442,15.6320801,93.8821335,5.0250869
		C100.1516037,6.8389654,96.9434662,8.0435543,96.9434662,8.0435543z"/>
	<path class="st0" d="M10.3486233,56.0743828c10.457365-3.3151627,20.8738823-6.7666702,31.381506-9.9140434
		c16.4304314-4.9214478,32.9164848-9.6580544,49.4032936-14.3882751c0.9993591-0.286726,1.902565,2.2734108,0.9836273,2.5318146
		c-26.8470612,7.5493469-54.641243,15.2008896-81.5133514,22.6609993
		C10.3668585,57.0306282,10.4860859,56.308075,10.3486233,56.0743828z"/>
	<path class="st0" d="M89.6554184,25.5134277c1.7516022-0.5804482,3.4363403-1.3057289,3.2160339,2.0391731
		c-26.5729065,8.2340736-55.850193,17.4021339-82.5228271,25.6671143c-0.0995874-0.3010483-0.2530804-0.6020355-0.3526688-0.90308
		c9.1308327-3.1716118,20.8912945-7.3328247,30.0573807-10.3990707"/>
	<path class="st0" d="M11.9772224,48.2949791c8.867918-3.4482803,17.7077084-6.9711571,26.6098747-10.3286285
		c16.2888145-6.1433487,32.6120911-12.1954212,48.928627-18.2650452c1.5905762-0.5916786,3.6137161-2.0506516,3.7786102,1.7638474
		c-26.2894745,9.1749268-52.6632385,18.3792725-79.0370026,27.5836143
		C12.1639652,48.7975006,12.0705929,48.5462418,11.9772224,48.2949791z"/>
	<path class="st0" d="M88.5826035,12.732049c2.2410431,3.4127245-0.3244095,3.4891825-1.8611984,4.0808592
		C65.5849762,24.9506798,44.4394188,33.0647736,23.2945023,41.180481c-2.1492558,0.824913-8.4851589,3.3621445-10.639987,4.1725349
		c-0.1131344-0.2968826,0.1108141-0.7520142-0.0023203-1.0488968C36.6421242,34.3239899,64.4712219,22.7627087,88.5826035,12.732049
		z"/>
	<path class="st0" d="M16.5605927,66.5236816c21.6537285-4.2611465,43.3044891-8.53759,64.9723053-12.7258759
		c0.8414764-0.1626549,1.8463821,0.5201645,2.7751389,0.8090248c-0.8623047,0.526577-1.6693039,1.372406-2.5950394,1.5327148
		C62.0094147,59.551506,42.2929192,62.888916,22.5775204,66.2324982c-1.9164486,0.3250198-3.8421574,0.5954361-5.763567,0.8911896
		C16.7294979,66.9236832,16.6450443,66.7236862,16.5605927,66.5236816z"/>
	<path class="st0" d="M117.3484726,69.5647278c-3.3553085-1.2593307-7.6969757-0.9055099-6.2151184,0.322937
		c-8.9531097-1.2729034-7.9609146-0.8981934-7.9591827-9.9261551c5.1908951,3.0131187,9.9987793,5.8039246,14.8066788,8.5947266
		C117.7700577,68.892395,117.5592728,69.2285614,117.3484726,69.5647278z"/>
	<path class="st0" d="M21.1377926,79.0650024c12.7352581-0.9694672,25.4705219-1.9389343,38.2057877-2.9084015
		c0.0301895,0.4342117,0.060379,0.8684235,0.0905685,1.3026352c-12.7472038,0.7972488-25.4944038,1.5944977-38.2416077,2.3917465
		C21.1742897,79.5889816,21.1560421,79.3269958,21.1377926,79.0650024z"/>
	<path class="st0" d="M98.7677536,74.9054337c-5.8454895,0.3772202-11.690979,0.7544479-17.5364761,1.1316681
		c-0.041748-0.4847031-0.0834808-0.9694138-0.1252289-1.4541245c5.8501358-0.4353561,11.700264-0.8707199,17.5503845-1.306076
		C98.6935349,73.8197403,98.7306442,74.362587,98.7677536,74.9054337z"/>
	<path class="st0" d="M87.3359833,37.8778305c2.7380447-0.3622551,4.629837-0.612545,6.9112091-0.9143791
		c0.2673721,2.5588684,0.5037155,4.8208008,0.8143921,7.7941055C92.3178711,42.3142509,90.1254501,40.3618813,87.3359833,37.8778305
		z"/>
</g>
<path class="st0" d="M133.9211731,68.443779c3.0876465-1.1948853,7.0829468-0.859169,5.7193146,0.3064041
	c8.2388763-1.207756,7.3258209-0.8522186,7.324234-9.4181633c-4.7767944,2.8589172-9.2011261,5.5068932-13.625473,8.1548729
	C133.5332336,67.8058548,133.7271881,68.1248169,133.9211731,68.443779z"/>
<path class="st0" d="M103.1407242,54.466198c0.1874313,0.0126076,6.8358459,1.3507881,9.8111343,1.6237068
	c2.6095123,0.2393646,4.9374161,0.5117722,4.8813477,3.8716049c6.3541794-0.2458878,11.4349213-0.4424934,18.081955-0.6997108
	c0.1882324-0.6781425,0.2539825-1.2094574,0.480896-1.6596031c0.297821-0.590786,0.6104736-1.4420357,1.112442-1.6154175
	c2.1065063-0.7276077,6.8240204-2.0226212,7.0114441-2.0100136"/>
<path class="st0" d="M80.3873444,8.8018675C74.3813705,8.977356,67.5704956,8.5703878,60.939415,9.4776134
	C35.5738831,12.9479771,15.092823,32.5339012,10.8394203,57.1023178
	c-2.3136959,13.3643417,0.7572947,25.5836487,9.0794373,36.2980576c7.5428276,9.7110825,17.6016426,15.5719681,29.536171,18.3002472
	c1.038826,0.2374802,6.9897461,1.2687454,8.0016403,1.8870392c-2.1993141-0.1666183-9.3267517-1.0094681-11.5030708-1.3314972
	c-19.5757389-2.8966751-34.5262871-12.3472824-42.3007736-31.0862961
	C-2.3006256,66.8201447-0.6996597,52.5524063,6.442986,39.0382233C20.5196323,12.4046412,51.3646049-0.157695,80.1342239,8.7059135
	C80.4664764,8.8082714,80.7841949,8.9578075,80.3873444,8.8018675z"/>
<path class="st0" d="M69.316246,83.7632904c0.1044769,0.2682419,0.2089539,0.5364761,0.3134308,0.8047104
	c0.9495697-0.2562103,2.2153702-0.2131577,2.7918777-0.822403c2.0744095-2.1922379,2.023674-9.308876-0.0216827-11.4311981
	c-0.5233688-0.5430603-1.5547714-0.5964661-2.3527679-0.8748398C72.4358444,76.0987244,72.4281082,79.9846115,69.316246,83.7632904z
	"/>
<g>
	<path class="st0" d="M96.8409576,14.7121983c-0.0158157,2.8044624,0.295578,5.6299324,0.7363052,8.4060154
		c0.1304626,0.8217316,1.0454178,2.046236,1.73172,2.141264c1.3761063,0.1905441,2.0278702-0.9705276,2.1038055-2.3370514
		c0.1446762-2.6035995,0.3323746-5.2054005,0.435524-7.8105841c0.1730728-4.3711615-1.7204361-6.5730877-6.0971375-7.0068293
		c-0.7005463-0.0694294-2.4453735-2.6847496-1.8690414-3.079926c0.3887329-0.2665453,23.2852097,1.6624489,34.1088104,2.3967409
		c3.3128128,0.2247477,5.3310318,1.8873467,6.6792679,4.6953769c4.8078613,10.0135803,7.6998749,20.5547924,8.6242981,31.6235294
		c0.3060913,3.6651077-0.3356323,4.6924896-3.8240814,6.0891724c-12.2818604,4.9173088-24.5825348,3.7456512-36.8392944-0.0809708
		c-2.9498062-0.920948-4.2887573-3.2101631-4.4604034-6.2803726c-0.1729965-3.0943909-0.3383026-6.2003365-0.7531891-9.2679176
		c-1.0648499-7.8734207-2.2662582-15.7283745-3.4287491-23.698122c1.5930557-0.1747284,3.4949112-0.3459234,4.6658249,0.8937473
		C97.9135056,12.685112,96.8466873,13.6956606,96.8409576,14.7121983z M112.7864227,49.8624001
		c2.9484024,0.2529182,5.4886856,0.5425148,8.035759,0.6268501c0.4899902,0.0162239,1.2032242-0.6706924,1.4816437-1.205864
		c4.4794388-8.6104927,8.9114761-17.2457085,13.3251877-25.8901596c0.2352448-0.4607353,0.4371796-1.1371422,0.2744598-1.5703716
		c-1.1043091-2.9404106-2.3108673-5.8424253-3.484375-8.7568464c-0.2446136,0.0020247-0.489212,0.0040493-0.7338104,0.006074
		 M125.0002441,49.9572296c2.3722153,0.8792992,3.304184,0.5661125,4.3130493-1.3910141
		c2.7377625-5.3110771,5.351532-10.6909523,8.2581787-15.9077682c1.2150421-2.1807613,0.6238861-3.9311771-0.3261108-6.5137787
		C132.9922485,34.4155083,129.0000916,42.1789093,125.0002441,49.9572296z"/>
	<path class="st0" d="M145.2876129,14.1804581c-2.8608093,0.6426477-2.6106415,2.2189503-2.1164856,4.1256351
		c0.5619507,2.1682663,0.8117218,4.4194832,1.158371,6.6406994c0.1899414,1.2171783,0.6456757,2.4832478,2.0122223,2.0415421
		c0.7402802-0.2392807,1.5378113-1.6028786,1.5711212-2.4871159c0.105484-2.8007164-0.0964661-5.6168175-0.255249-8.4226818
		c-0.1748352-3.0891905-1.3977966-4.5217619-4.4451599-4.8826618c-1.8506622-0.2191734-3.7483978-0.0409317-5.7427063-0.0412416
		c0.1557007,1.7724733,1.0415649,1.8051138,2.1980133,1.6535187
		C141.5053101,12.5672665,143.4178772,12.1967649,145.2876129,14.1804581z"/>
</g>
<path class="st0" d="M127.9439621,7.4453568l6.8040543,0.8304267c1.256073,0.1533022,2.332901,0.9697075,2.8196411,2.137742
	l4.9182129,11.8021498c0.0126495,0.04632,0.0251465,0.0920696,0.037796,0.1383877l4.4718323,32.0915985
	c0,0-5.6430969-31.9800529-5.8026733-32.2106667l-3.5023193-7.0130796l-3.7417297-5.2893629"/>
<rect x="35.5835724" y="94.1293259" class="st1" width="118.6230927" height="33.6666641"/>
<g class="st2">
	<path class="st3" d="M63.8632813,94.1289063l-1.3999023,6.1201172h-8.4399414l-5.5200195,25.0800781l-6.3999023-0.0800781
		l5.5200195-25h-8.4399414l1.3999023-6.1201172H63.8632813z"/>
	<path class="st3" d="M70.1835938,105.8886719h8.3198242l0.6401367-2.8798828
		c0.1328125-0.6132813,0.2197266-1.1132813,0.2597656-1.5c0.0400391-0.3857422-0.0268555-0.6855469-0.199707-0.8994141
		c-0.1738281-0.2138672-0.4873047-0.3603516-0.9404297-0.4404297c-0.4536133-0.0800781-1.1064453-0.1201172-1.9599609-0.1201172
		h-9.4399414l1.3603516-5.9199219h12.9199219c1.3330078,0,2.3798828,0.1542969,3.1396484,0.4599609
		c0.7607422,0.3066406,1.3134766,0.7197266,1.6601563,1.2402344c0.3466797,0.5195313,0.5263672,1.1269531,0.5400391,1.8203125
		s-0.0595703,1.4130859-0.2197266,2.1591797l-4,18.0400391c-0.3203125,1.5205078-0.6201172,2.7607422-0.9003906,3.7207031
		c-0.2792969,0.9599609-0.6796875,1.7138672-1.199707,2.2597656c-0.5200195,0.546875-1.2402344,0.9199219-2.1601563,1.1201172
		s-2.1801758,0.2998047-3.7797852,0.2998047H62.3432617l1.2402344-6.1201172h9.3999023
		c0.6401367,0,1.1401367-0.0332031,1.5-0.1005859c0.3598633-0.0664063,0.6533203-0.1875,0.8798828-0.3613281
		s0.3930664-0.4296875,0.5-0.7646484c0.1064453-0.3349609,0.2133789-0.7705078,0.3203125-1.3066406l1.0795898-5.0664063h-7.0795898
		V105.8886719z"/>
	<path class="st3" d="M86.0234375,125.2490234l6.9199219-31.1201172h6.3994141l-2.9199219,13l11.5205078-13h8.3994141
		l-14.3193359,16.2001953l10.1201172,14.9599609h-7.4804688l-9.2001953-13.6396484l-3.0400391,13.5996094H86.0234375z"/>
	<path class="st3" d="M143.2626953,94.1289063h5.640625l-7.1601563,31.1201172h-6.4003906l4.7207031-20.6396484
		l-18.7207031,20.6396484h-5.7197266l7.1201172-31.1201172h6.2802734l-4.8408203,21.3203125L143.2626953,94.1289063z"/>
</g>
<path class="st0" d="M158.9870453,89.900589c-9.9944458-1.6814575-20.232605,0.0412598-30.3510742-0.8296509
	c0.1442871-3.4334106,1.8450317-4.5314331,5.0186157-4.6762085c3.4971924-0.1596069,7.1600342-0.4899292,10.3695679-1.7313232
	c1.927124-0.7453613,4.3322144-3.3103638,4.4299927-5.1677246c0.3171997-6.0272217-0.3310547-12.1052246-0.6075439-18.1636391
	c-0.7078857,4.1143799-0.6270142,10.8264198-0.5592651,11.842289c0.4954834,7.4251709-1.387146,9.4615479-8.7728271,9.5435181
	c-5.5018921,0.0609741-11.0036621,0.1419067-16.5056763,0.1724243c-5.3428955,0.0296631-10.6860352,0.0064697-16.1530762,0.0064697
	c-0.6705933-2.9920654-1.2946167-5.7764282-1.9186401-8.5608521c-0.1497803,0.0350342-0.2996216,0.0700073-0.4494019,0.1049805
	c-0.3067017,2.814209-0.6133423,5.628418-0.9594727,8.8051758c-8.5706787,0-16.7609863,0-24.9523315,0
	c-0.583313-2.7061157-0.9456177-5.4534302-1.7907104-8.0432129c-1.1135864-3.4122925-1.953125-7.8917847-6.6760254-7.4249268
	c-4.475769,0.4425049-4.9611816,4.8615112-5.6818237,8.4224243c-0.5343018,2.6399536-0.6488037,5.3648682-0.975708,8.2782593
	c-15.3320923,0.4332886-30.3381958,0.8574219-44.9831543,1.2713013c-5.6369629-0.0466919-6.4018555,5.3777466-5.9703369,7.0353394
	c-2.3341064,0.1045532,96.1744995,0.7718506,147.4077759,0.7718506
	C159.5191498,91.1501617,159.5191498,90.4626617,158.9870453,89.900589z M21.609726,90.4173737
	c-0.1557617-3.619751,1.4925537-4.9945068,4.9848022-4.5960083c1.9384766,0.2212524,3.9422607,0.2149048,5.8822021,0.0002441
	c3.1327515-0.3466187,4.9707642,0.7520142,5.3746338,4.5957642C32.2619476,90.4173737,26.9541473,90.4173737,21.609726,90.4173737z
	 M48.0557098,89.7849274c0.1721191-2.7073975,1.2245483-4.2128296,4.2973022-3.9708252
	c2.8418579,0.2237549,5.7304077,0.2284546,8.5708008-0.0057983c2.8426514-0.234375,4.4351196,0.7529907,4.8876343,3.9766235
	C59.8715057,89.7849274,54.0149994,89.7849274,48.0557098,89.7849274z M72.9515228,85.2660675
	c-1.7007446,2.5337524-4.2018433,2.3535156-5.4553223-0.428772c-0.6719971-1.4914551-1.052063-3.1289063-1.4644165-4.7928467
	c-0.3068848-1.2383423-0.3201294-2.5330811-0.0285645-3.7751465c0.4282227-1.8244629,0.8119507-3.6070557,1.5747681-5.2092285
	c1.3375244-2.8092651,3.7380981-2.7479858,5.4158325-0.1607666C75.295639,74.4487457,75.2704926,81.8112946,72.9515228,85.2660675z
	 M81.7055511,89.4875641c0.0618286-2.6016846,1.1883545-3.7709961,4.0480347-3.7754517
	c7.0431519-0.0109253,14.0935059-0.1749268,21.1251221-0.5636597c2.9372559-0.1623535,4.3659058,0.8840942,4.9031982,4.3391113
	C101.5787201,89.4875641,91.7002411,89.4875641,81.7055511,89.4875641z"/>
</svg>
